<?xml version="1.0" encoding="UTF-8"?>
<svg width="691px" height="190px" viewBox="0 0 691 190" version="1.1" xmlns="http://www.w3.org/2000/svg" xmlns:xlink="http://www.w3.org/1999/xlink">
    <!-- Generator: Sketch 56.3 (81716) - https://sketch.com -->
    <title>logo-js+ copy</title>
    <desc>Created with Sketch.</desc>
    <defs>
        <linearGradient x1="80.8637261%" y1="55.9370449%" x2="20.1858957%" y2="27.4796582%" id="linearGradient-1">
            <stop stop-color="#C93F2B" offset="0%"></stop>
            <stop stop-color="#AB2723" offset="100%"></stop>
        </linearGradient>
        <linearGradient x1="0.708223501%" y1="29.3725072%" x2="80.8386539%" y2="77.6710269%" id="linearGradient-2">
            <stop stop-color="#9CB71E" offset="0%"></stop>
            <stop stop-color="#879E23" offset="36%"></stop>
            <stop stop-color="#788C28" offset="74%"></stop>
            <stop stop-color="#728529" offset="100%"></stop>
        </linearGradient>
        <linearGradient x1="9.14655858%" y1="114.548372%" x2="56.4174453%" y2="19.4312952%" id="linearGradient-3">
            <stop stop-color="#ED7004" offset="0%"></stop>
            <stop stop-color="#F59A2D" offset="100%"></stop>
        </linearGradient>
        <linearGradient x1="49.547816%" y1="69.9226896%" x2="73.0153996%" y2="17.8446154%" id="linearGradient-4">
            <stop stop-color="#0BBBEF" offset="0%"></stop>
            <stop stop-color="#005F9F" offset="100%"></stop>
        </linearGradient>
    </defs>
    <g id="Page-1" stroke="none" stroke-width="1" fill="none" fill-rule="evenodd">
        <g id="logo-js+-copy" transform="translate(0.000000, -1.000000)" fill-rule="nonzero">
            <path d="M240.41,67.13 C243.163181,68.3605389 246.155038,68.9650579 249.17,68.9 C252.071496,68.9832355 254.81127,67.5661112 256.42,65.15 C258.2,62.6366667 259.086667,58.5666667 259.08,52.94 L259.08,11.12 L278.48,11.12 L278.48,58.78 C278.525798,62.4577098 278.071644,66.1245881 277.13,69.68 C276.319569,72.7494994 274.821815,75.5945465 272.75,78 C270.541517,80.4229737 267.75971,82.2522953 264.66,83.32 C260.719136,84.662745 256.572155,85.2991796 252.41,85.2 C250.626257,85.2009611 248.845946,85.0436779 247.09,84.73 C245.35,84.4166667 243.263333,83.9466667 240.83,83.32 L240.41,83.22 L240.41,67.13 Z" id="Path" fill="#FFFFFF"></path>
            <path d="M352.74,56.28 C352.74,65.88 349.89,73.0933333 344.19,77.92 C338.49,82.7466667 330.703333,85.1633333 320.83,85.17 C310.95,85.17 303.16,82.7533333 297.46,77.92 C291.76,73.0866667 288.91,65.8733333 288.91,56.28 L288.91,11.12 L308.31,11.12 L308.31,53.05 C308.289091,55.3957273 308.479864,57.7385577 308.88,60.05 C309.204479,62.0186 309.882033,63.9123617 310.88,65.64 C311.81397,67.2383114 313.165694,68.5520073 314.79,69.44 C316.640206,70.4005655 318.706445,70.868913 320.79,70.8 C322.906017,70.8740293 325.00583,70.4058743 326.89,69.44 C328.50395,68.5555136 329.84034,67.2398971 330.75,65.64 C331.727697,63.9030429 332.40394,62.0129453 332.75,60.05 C333.150136,57.7385577 333.340909,55.3957273 333.32,53.05 L333.32,11.12 L352.72,11.12 L352.74,56.28 Z" id="Path" fill="#FFFFFF"></path>
            <polygon id="Path" fill="#FFFFFF" points="363.48 11.12 388.2 11.12 412.82 60.56 413.02 60.56 412.71 11.12 430.44 11.12 430.44 83.92 406.35 83.92 380.9 34.17 380.69 34.17 381.32 83.92 363.48 83.92"></polygon>
            <polygon id="Path" fill="#FFFFFF" points="454.74 25.51 436.8 25.51 436.8 11.12 492.08 11.12 492.08 25.51 474.14 25.51 474.14 83.92 454.74 83.92"></polygon>
            <path d="M504.81,19.83 C511.056667,13.1633333 520.093333,9.83 531.92,9.83 C543.746667,9.83 552.786667,13.1633333 559.04,19.83 C565.3,26.4966667 568.43,35.7266667 568.43,47.52 C568.43,59.3133333 565.286667,68.5266667 559,75.16 C552.7,81.8266667 543.676667,85.16 531.93,85.16 C520.183333,85.16 511.163333,81.8266667 504.87,75.16 C498.57,68.4933333 495.423333,59.28 495.429989,47.52 C495.436667,35.76 498.563333,26.53 504.81,19.83 Z M516.38,56.38 C516.94679,59.0040319 517.961648,61.5107302 519.38,63.79 C520.664357,65.8832511 522.434342,67.6360855 524.54,68.9 C526.787025,70.1948104 529.347435,70.8452931 531.94,70.78 C534.550977,70.8399677 537.129281,70.1902074 539.4,68.9 C541.518726,67.6529801 543.292409,65.896484 544.56,63.79 C545.939244,61.4998705 546.926164,58.9953918 547.48,56.38 C548.122299,53.4708872 548.437588,50.4991234 548.42,47.52 C548.444889,44.4711197 548.129606,41.4289768 547.48,38.45 C546.922209,35.8201224 545.928501,33.3020535 544.54,31 C543.281715,28.9148458 541.503741,27.192003 539.38,26 C537.08703,24.7780029 534.517535,24.1683504 531.92,24.23 C529.341036,24.163156 526.789594,24.7734334 524.52,26 C522.408799,27.2087522 520.634631,28.9279076 519.36,31 C517.943425,33.2801739 516.928696,35.7865554 516.36,38.41 C515.71542,41.3897804 515.400195,44.4313638 515.42,47.48 C515.41089,50.4729873 515.732847,53.4578006 516.38,56.38 L516.38,56.38 Z" id="Shape" fill="#FFFFFF"></path>
            <path d="M577.4,66 C580.304268,67.5376745 583.387714,68.7099213 586.58,69.49 C590.124222,70.3788651 593.766067,70.8189774 597.42,70.8 C600.403422,70.9229757 603.377284,70.3869293 606.13,69.23 C608.278305,68.2648826 609.593186,66.0587601 609.42,63.71 C609.523019,61.3903434 608.312916,59.2098381 606.29,58.07 C603.176216,56.3817242 599.886514,55.0403574 596.48,54.07 C593.653589,53.2732896 590.869928,52.3320518 588.14,51.25 C585.857038,50.3209008 583.716074,49.0753717 581.78,47.55 C579.704254,45.9155318 578.028459,43.8293382 576.88,41.45 C575.541173,38.5517216 574.897425,35.3809173 575,32.19 C574.8846,28.452488 575.842386,24.7601513 577.76,21.55 C579.581909,18.6473238 582.115398,16.258409 585.12,14.61 C588.280248,12.8848531 591.691804,11.6666813 595.23,11 C599.007292,10.2499009 602.848951,9.8714289 606.7,9.86979428 C610.086781,9.86168078 613.469476,10.1056894 616.82,10.6 C619.760046,11.0097227 622.658032,11.6790036 625.48,12.6 L624.23,27.6 C619.146152,25.3267131 613.628484,24.1870094 608.06,24.26 C606.53,24.26 605.06,24.33 603.63,24.47 C602.226105,24.6014083 600.842955,24.9001954 599.51,25.36 C598.282652,25.7452547 597.171914,26.4330182 596.28,27.36 C595.39683,28.3610736 594.937785,29.6664832 595,31 C594.960457,33.0181832 596.101363,34.8741087 597.92,35.75 C600.887766,37.2035725 604.002027,38.3366407 607.21,39.13 C610.54,40.13 613.36,41.01 615.65,41.85 C618.042898,42.7340704 620.29344,43.9637826 622.33,45.5 C624.522492,47.143407 626.291428,49.2860129 627.49,51.75 C628.854968,54.6872669 629.515818,57.9024864 629.42,61.14 C629.546671,65.1237634 628.647956,69.0732876 626.81,72.61 C625.140548,75.6745102 622.695697,78.2469481 619.72,80.07 C616.599089,81.9768054 613.161241,83.3079132 609.57,84 C605.568626,84.788531 601.49826,85.173792 597.42,85.15 C593.685186,85.1341781 589.956065,84.8568331 586.26,84.32 C582.693833,83.8282363 579.172638,83.0524365 575.73,82 L577.4,66 Z" id="Path" fill="#FFFFFF"></path>
            <path d="M286.51,121.52 C281.844653,119.458301 276.800595,118.392271 271.7,118.39 C270.326832,118.390994 268.959307,118.565714 267.63,118.91 C266.327287,119.255244 265.092946,119.819997 263.98,120.58 C262.836617,121.388582 261.906647,122.462679 261.27,123.71 C260.553262,125.205541 260.210112,126.852662 260.27,128.51 C260.197221,130.739935 261.307454,132.842534 263.19,134.04 C266.086238,135.821007 269.16351,137.289248 272.37,138.42 C275.43,139.6 277.983333,140.676667 280.03,141.65 C282.157956,142.671434 284.14176,143.969312 285.93,145.51 C287.847936,147.166564 289.392025,149.211716 290.46,151.51 C291.682075,154.247011 292.273314,157.22371 292.19,160.22 C292.264597,163.67445 291.531824,167.098625 290.05,170.22 C288.702345,172.979027 286.671295,175.347438 284.15,177.1 C281.522851,178.897444 278.592394,180.205139 275.5,180.96 C272.018973,181.81673 268.444805,182.236628 264.86,182.21 C262.10399,182.251195 259.348966,182.077334 256.62,181.69 C254.46,181.34 251.51,180.69 247.75,179.81 L246.19,179.4 L247.55,166.25 C250.112351,167.644268 252.822506,168.747785 255.63,169.54 C258.3573,170.328004 261.181153,170.731892 264.02,170.74 C267.146299,170.758988 270.216662,169.910917 272.89,168.29 C275.443441,166.925732 277.01586,164.244507 276.96,161.35 C277.074625,158.873254 275.912128,156.510516 273.88,155.09 C270.860298,153.150237 267.620956,151.575883 264.23,150.4 C261.31,149.22 258.843333,148.143333 256.83,147.17 C254.754884,146.162424 252.824329,144.880993 251.09,143.36 C249.23724,141.741448 247.745037,139.751844 246.71,137.52 C245.534194,134.879474 244.963611,132.009474 245.04,129.12 C244.941511,125.634377 245.642778,122.17251 247.09,119 C248.387573,116.257147 250.337836,113.874255 252.77,112.06 C255.203753,110.271054 257.946157,108.945615 260.86,108.15 C263.984999,107.299415 267.211379,106.878875 270.45,106.9 C276.35938,106.825508 282.241939,107.706878 287.87,109.51 L286.51,121.52 Z" id="Path" fill="#FFFFFF"></path>
            <path d="M309.09,117.09 C315.31,110.31 324.09,106.92 335.43,106.92 C340.598077,106.833955 345.733515,107.754394 350.55,109.63 C354.825438,111.316779 358.659472,113.957166 361.76,117.35 C364.855157,120.802094 367.216294,124.847328 368.7,129.24 C370.345062,134.109056 371.156459,139.220861 371.1,144.36 C371.163609,149.531644 370.369513,154.678063 368.75,159.59 C367.287501,164.012199 364.947441,168.093701 361.87,171.59 C358.785024,175.039271 354.950045,177.735046 350.66,179.47 C345.814445,181.383343 340.638834,182.321274 335.43,182.23 C324.016667,182.23 315.22,178.79 309.04,171.91 C302.86,165.03 299.766667,155.85 299.76,144.37 C299.76,132.963333 302.87,123.87 309.09,117.09 Z M316.09,154.17 C316.805596,157.166172 318.022759,160.019743 319.69,162.61 C321.290985,165.084046 323.47491,167.127182 326.05,168.56 C331.931162,171.478523 338.838838,171.478523 344.72,168.56 C347.298739,167.128504 349.486208,165.085263 351.09,162.61 C352.758202,160.02144 353.972304,157.167116 354.68,154.17 C355.457931,150.958411 355.844075,147.664433 355.830371,144.36 C355.840228,141.105498 355.437001,137.862878 354.63,134.71 C353.88431,131.738303 352.632706,128.917122 350.93,126.37 C349.293151,123.933328 347.090317,121.929504 344.51,120.53 C338.761416,117.675955 332.008584,117.675955 326.26,120.53 C323.67361,121.939311 321.472579,123.961787 319.85,126.42 C318.156523,128.977066 316.902564,131.799319 316.14,134.77 C315.333801,137.902423 314.933853,141.125534 314.95,144.36 C314.950691,147.665358 315.346839,150.958762 316.13,154.17 L316.09,154.17 Z" id="Shape" fill="#FFFFFF"></path>
            <polygon id="Path" fill="#FFFFFF" points="382.36 108.17 405.73 108.17 423 163.34 423.21 163.34 440.52 108.17 463.88 108.17 463.88 181 450 181 450 120.89 449.79 120.89 430.13 181 416.13 181 396.52 120.92 396.31 121.13 396.31 181 382.31 181"></polygon>
            <path d="M484.52,117.09 C490.74,110.31 499.52,106.92 510.86,106.92 C516.034785,106.831353 521.177266,107.751836 526,109.63 C530.275438,111.316779 534.109472,113.957166 537.21,117.35 C540.305157,120.802094 542.666294,124.847328 544.15,129.24 C545.795062,134.109056 546.606459,139.220861 546.55,144.36 C546.608836,149.531306 545.814859,154.676946 544.2,159.59 C542.737501,164.012199 540.397441,168.093701 537.32,171.59 C534.233356,175.041861 530.3945,177.737955 526.1,179.47 C521.257926,181.383315 516.085586,182.321269 510.88,182.23 C499.466667,182.23 490.67,178.79 484.49,171.91 C478.31,165.03 475.216667,155.85 475.209957,144.37 C475.196667,132.963333 478.3,123.87 484.52,117.09 Z M491.52,154.17 C492.231162,157.167633 493.448636,160.021932 495.12,162.61 C496.716851,165.0875 498.901738,167.131537 501.48,168.56 C507.361162,171.478523 514.268838,171.478523 520.15,168.56 C522.728262,167.131537 524.913149,165.0875 526.51,162.61 C528.185385,160.02407 529.403164,157.169056 530.11,154.17 C530.887931,150.958411 531.274075,147.664433 531.260371,144.36 C531.270228,141.105498 530.867001,137.862878 530.06,134.71 C529.31431,131.738303 528.062706,128.917122 526.36,126.37 C524.723151,123.933328 522.520317,121.929504 519.94,120.53 C514.191416,117.675955 507.438584,117.675955 501.69,120.53 C499.101689,121.936625 496.900065,123.959647 495.28,126.42 C493.586523,128.977066 492.332564,131.799319 491.57,134.77 C490.760537,137.902005 490.357229,141.125108 490.369706,144.36 C490.373964,147.665759 490.77347,150.95917 491.56,154.17 L491.52,154.17 Z" id="Shape" fill="#FFFFFF"></path>
            <path d="M596.9,121.52 C592.234653,119.458301 587.190595,118.392271 582.09,118.39 C580.716832,118.390994 579.349307,118.565714 578.02,118.91 C576.717287,119.255244 575.482946,119.819997 574.37,120.58 C573.226617,121.388582 572.296647,122.462679 571.66,123.71 C570.943262,125.205541 570.600112,126.852662 570.66,128.51 C570.587221,130.739935 571.697454,132.842534 573.58,134.04 C576.476238,135.821007 579.55351,137.289248 582.76,138.42 C585.82,139.6 588.373333,140.676667 590.42,141.65 C592.547956,142.671434 594.53176,143.969312 596.32,145.51 C598.237936,147.166564 599.782025,149.211716 600.85,151.51 C602.072075,154.247011 602.663314,157.22371 602.58,160.22 C602.654597,163.67445 601.921824,167.098625 600.44,170.22 C599.092345,172.979027 597.061295,175.347438 594.54,177.1 C591.912851,178.897444 588.982394,180.205139 585.89,180.96 C582.408973,181.81673 578.834805,182.236628 575.25,182.21 C572.49399,182.251195 569.738966,182.077334 567.01,181.69 C564.85,181.34 561.9,180.69 558.14,179.81 L556.58,179.4 L557.94,166.25 C560.502351,167.644268 563.212506,168.747785 566.02,169.54 C568.7473,170.328004 571.571153,170.731892 574.41,170.74 C577.536299,170.758988 580.606662,169.910917 583.28,168.29 C585.833441,166.925732 587.40586,164.244507 587.35,161.35 C587.464625,158.873254 586.302128,156.510516 584.27,155.09 C581.250298,153.150237 578.010956,151.575883 574.62,150.4 C571.7,149.22 569.233333,148.143333 567.22,147.17 C565.144884,146.162424 563.214329,144.880993 561.48,143.36 C559.62724,141.741448 558.135037,139.751844 557.1,137.52 C555.924194,134.879474 555.353611,132.009474 555.43,129.12 C555.331511,125.634377 556.032778,122.17251 557.48,119 C558.777573,116.257147 560.727836,113.874255 563.16,112.06 C565.593753,110.271054 568.336157,108.945615 571.25,108.15 C574.374999,107.299415 577.601379,106.878875 580.84,106.9 C586.74938,106.825508 592.631939,107.706878 598.26,109.51 L596.9,121.52 Z" id="Path" fill="#FFFFFF"></path>
            <circle id="Oval" fill="#AB2723" cx="18.25" cy="171.05" r="18.25"></circle>
            <path d="M87.63,126.93 L87.63,176 C87.63,188.47 78.68,193.77 67.75,187.76 L39.5,151.61 L81.13,111.09 C85.2893733,115.313752 87.6235925,121.002064 87.63,126.93 Z" id="Path" fill="#AB2723"></path>
            <path d="M15.87,104.25 L65,104.25 C71.091783,104.256475 76.922742,106.723003 81.17,111.09 L39.5,151.61 L4.11,124.12 C-1.89,113.19 3.4,104.25 15.87,104.25 Z" id="Path" fill="url(#linearGradient-1)"></path>
            <path d="M155.999997,19.49 C155.999997,29.5747195 164.17528,37.75 174.26,37.75 C184.34472,37.75 192.52,29.5747195 192.52,19.49 C192.52,9.40528047 184.34472,1.22999725 174.26,1.22999725 C169.416334,1.22734521 164.770288,3.15030858 161.345299,6.5752985 C157.920309,10.0002884 155.997345,14.6463335 155.999997,19.49 L155.999997,19.49 Z" id="Path" fill="#728529"></path>
            <path d="M124.76,3.48 C113.83,-2.52 104.89,2.77 104.89,15.24 L104.89,64.32 C104.897281,70.4530275 107.399001,76.3192537 111.82,80.57 L152.73,39.34 L124.76,3.48 Z" id="Path" fill="#728529"></path>
            <path d="M188.41,67.12 C182.610173,62.6043276 178.260303,59.2175733 175.36039,56.9597371 C170.331414,53.04424 162.787951,47.1709943 152.73,39.34 L111.82,80.57 C116.027978,84.6892254 121.681444,86.9972754 127.57,87 L176.66,87 C189.13,87 194.42,78.06 188.41,67.12 Z" id="Path" fill="url(#linearGradient-2)"></path>
            <circle id="Oval" fill="#ED7004" cx="173.83" cy="171.05" r="18.25"></circle>
            <path d="M129.21,104.25 L178.28,104.25 C190.75,104.25 196.04,113.19 190.04,124.12 L153.76,152.52 L112.85,111.29 C117.111148,106.804829 123.023399,104.260682 129.21,104.25 L129.21,104.25 Z" id="Path" fill="#ED7004"></path>
            <path d="M153.76,152.52 L126.41,187.76 C115.48,193.76 106.54,188.47 106.54,176 L106.54,126.93 C106.545447,121.097569 108.806516,115.493274 112.85,111.29 L153.76,152.52 Z" id="Path" fill="url(#linearGradient-3)"></path>
            <path d="M2.08,19.49 C2.08,29.5747195 10.2552805,37.75 20.34,37.75 C30.4247195,37.75 38.6,29.5747195 38.6,19.49 C38.6,9.40528047 30.4247195,1.23 20.34,1.23 C15.4971469,1.23 10.8526444,3.15381591 7.42823018,6.57823018 C4.00381591,10.0026444 2.08,14.6471469 2.08,19.49 Z" id="Path" fill="#005F9F"></path>
            <path d="M87.63,64.32 L87.63,15.24 C87.63,2.76 78.68,-2.53 67.75,3.48 L38.75,40.36 L80.37,80.86 C84.9868919,76.5976471 87.6179095,70.6035656 87.63,64.32 Z" id="Path" fill="url(#linearGradient-4)"></path>
            <path d="M38.77,40.36 L4.12,67.12 C-1.89,78.06 3.4,87 15.88,87 L65,87 C70.7401987,86.9912198 76.2613813,84.7956199 80.44,80.86 L38.77,40.36 Z" id="Path" fill="#005F9F"></path>
            <polygon id="Path" fill="#FFFFFF" points="616.33 133.46 644.33 133.46 644.33 105.46 662.91 105.46 662.91 133.46 690.91 133.46 690.91 152 662.91 152 662.91 180 644.33 180 644.33 152 616.33 152"></polygon>
        </g>
    </g>
</svg>